<svg xmlns="http://www.w3.org/2000/svg" width="1920" height="1080" viewBox="0 0 1920 1080">
  <!-- 背景渐变 -->
  <defs>
    <linearGradient id="bgGradient" x1="0%" y1="0%" x2="100%" y2="100%">
      <stop offset="0%" stop-color="#fce7f3" />
      <stop offset="100%" stop-color="#e0e7ff" />
    </linearGradient>
    <!-- 装饰圆形渐变 -->
    <radialGradient id="circleGradient1" cx="30%" cy="40%" r="25%" fx="30%" fy="40%">
      <stop offset="0%" stop-color="#fbcfe8" stop-opacity="0.7" />
      <stop offset="100%" stop-color="#fbcfe8" stop-opacity="0" />
    </radialGradient>
    <radialGradient id="circleGradient2" cx="75%" cy="30%" r="20%" fx="75%" fy="30%">
      <stop offset="0%" stop-color="#bfdbfe" stop-opacity="0.6" />
      <stop offset="100%" stop-color="#bfdbfe" stop-opacity="0" />
    </radialGradient>
  </defs>

  <!-- 背景 -->
  <rect width="100%" height="100%" fill="url(#bgGradient)" />

  <!-- 装饰圆形 -->
  <circle cx="576" cy="432" r="270" fill="url(#circleGradient1)" />
  <circle cx="1440" cy="324" r="216" fill="url(#circleGradient2)" />

  <!-- 装饰性星星 -->
  <g fill="#ffffff" fill-opacity="0.5">
    <path d="M100,200 L110,230 L140,235 L115,255 L125,285 L100,270 L75,285 L85,255 L60,235 L90,230 Z" />
    <path d="M1800,150 L1810,180 L1840,185 L1815,205 L1825,235 L1800,220 L1775,235 L1785,205 L1760,185 L1790,180 Z" />
    <path d="M300,800 L310,830 L340,835 L315,855 L325,885 L300,870 L275,885 L285,855 L260,835 L290,830 Z" />
    <path d="M1600,700 L1610,730 L1640,735 L1615,755 L1625,785 L1600,770 L1575,785 L1585,755 L1560,735 L1590,730 Z" />
  </g>

  <!-- 二次元风格女孩 -->
  <g transform="translate(960, 540) scale(1.2)">
    <!-- 头发 -->
    <path d="M-70,-150 C-100,-100 -100,-20 -70,10 C-50,30 -30,40 -10,40 C10,40 30,30 50,10 C80,-20 80,-100 50,-150 Z" fill="#333333" />
    <!-- 刘海 -->
    <path d="M-60,-120 C-80,-100 -80,-80 -60,-60 C-50,-50 -40,-40 -30,-35 C-20,-30 -10,-25 0,-25 C10,-25 20,-30 30,-35 C40,-40 50,-50 60,-60 C80,-80 80,-100 60,-120 Z" fill="#333333" />
    <!-- 脸 -->
    <circle cx="0" cy="0" r="50" fill="#ffd7b5" />
    <!-- 眼睛 -->
    <ellipse cx="-20" cy="-10" rx="8" ry="10" fill="white" />
    <ellipse cx="20" cy="-10" rx="8" ry="10" fill="white" />
    <ellipse cx="-20" cy="-10" rx="4" ry="6" fill="#333333" />
    <ellipse cx="20" cy="-10" rx="4" ry="6" fill="#333333" />
    <circle cx="-18" cy="-12" r="2" fill="white" />
    <circle cx="22" cy="-12" r="2" fill="white" />
    <!-- 眉毛 -->
    <path d="M-30,-25 Q-20,-30 -10,-25" stroke="#333333" stroke-width="3" fill="none" />
    <path d="M10,-25 Q20,-30 30,-25" stroke="#333333" stroke-width="3" fill="none" />
    <!-- 嘴巴 -->
    <path d="M-15,20 Q0,30 15,20" stroke="#ff758f" stroke-width="2" fill="none" />
    <!-- 衣服 -->
    <path d="M-50,50 L-30,100 L30,100 L50,50 Z" fill="#fbcfe8" />
    <path d="M-50,50 C-30,60 -10,60 0,60 C10,60 30,60 50,50" fill="#e0e7ff" />
  </g>

  <!-- 装饰性元素 -->
  <g transform="translate(200, 800) rotate(15)">
    <rect width="120" height="120" rx="20" fill="#fbcfe8" fill-opacity="0.4" />
  </g>
  <g transform="translate(1700, 850) rotate(-15)">
    <rect width="100" height="100" rx="20" fill="#bfdbfe" fill-opacity="0.4" />
  </g>
</svg>