<svg xmlns="http://www.w3.org/2000/svg" width="1920" height="1080" viewBox="0 0 1920 1080">
  <!-- 背景渐变 -->
  <defs>
    <linearGradient id="bgGradient" x1="0%" y1="0%" x2="100%" y2="100%">
      <stop offset="0%" stop-color="#f0f4f8" />
      <stop offset="100%" stop-color="#e2e8f0" />
    </linearGradient>
    <!-- 装饰圆形渐变 -->
    <radialGradient id="circleGradient1" cx="30%" cy="40%" r="25%" fx="30%" fy="40%">
      <stop offset="0%" stop-color="#bfdbfe" stop-opacity="0.7" />
      <stop offset="100%" stop-color="#bfdbfe" stop-opacity="0" />
    </radialGradient>
    <radialGradient id="circleGradient2" cx="75%" cy="30%" r="20%" fx="75%" fy="30%">
      <stop offset="0%" stop-color="#93c5fd" stop-opacity="0.6" />
      <stop offset="100%" stop-color="#93c5fd" stop-opacity="0" />
    </radialGradient>
    <!-- 波浪图案 -->
    <pattern id="wavePattern" x="0" y="0" width="100" height="20" patternUnits="userSpaceOnUse">
      <path d="M0,10 Q25,20 50,10 T100,10" fill="none" stroke="#93c5fd" stroke-width="2" stroke-opacity="0.3" />
    </pattern>
  </defs>

  <!-- 背景 -->
  <rect width="100%" height="100%" fill="url(#bgGradient)" />
  <!-- 波浪背景 -->
  <rect width="100%" height="100%" fill="url(#wavePattern)" />

  <!-- 装饰圆形 -->
  <circle cx="576" cy="432" r="270" fill="url(#circleGradient1)" />
  <circle cx="1440" cy="324" r="216" fill="url(#circleGradient2)" />
  <circle cx="960" cy="720" r="180" fill="url(#circleGradient1)" />

  <!-- 装饰性星星 -->
  <g fill="#ffffff" fill-opacity="0.7">
    <path d="M100,200 L110,230 L140,235 L115,255 L125,285 L100,270 L75,285 L85,255 L60,235 L90,230 Z" />
    <path d="M1800,150 L1810,180 L1840,185 L1815,205 L1825,235 L1800,220 L1775,235 L1785,205 L1760,185 L1790,180 Z" />
    <path d="M300,800 L310,830 L340,835 L315,855 L325,885 L300,870 L275,885 L285,855 L260,835 L290,830 Z" />
    <path d="M1600,700 L1610,730 L1640,735 L1615,755 L1625,785 L1600,770 L1575,785 L1585,755 L1560,735 L1590,730 Z" />
    <path d="M960,300 L970,330 L1000,335 L975,355 L985,385 L960,370 L935,385 L945,355 L920,335 L950,330 Z" />
  </g>

  <!-- 装饰性几何元素 -->
  <g transform="translate(200, 800) rotate(15)">
    <rect width="120" height="120" rx="20" fill="#bfdbfe" fill-opacity="0.4" />
  </g>
  <g transform="translate(1700, 850) rotate(-15)">
    <rect width="100" height="100" rx="20" fill="#93c5fd" fill-opacity="0.4" />
  </g>
  <g transform="translate(960, 200) rotate(45)">
    <rect width="80" height="80" rx="15" fill="#bfdbfe" fill-opacity="0.5" />
  </g>

  <!-- 装饰线条 -->
  <path d="M0,540 Q480,340 960,540 T1920,540" stroke="#93c5fd" stroke-width="3" stroke-opacity="0.3" fill="none" />
  <path d="M0,740 Q480,540 960,740 T1920,740" stroke="#93c5fd" stroke-width="2" stroke-opacity="0.2" fill="none" />
</svg>