<svg xmlns="http://www.w3.org/2000/svg" width="1920" height="1080" viewBox="0 0 1920 1080">
  <!-- 背景渐变 -->
  <defs>
    <linearGradient id="bgGradient" x1="0%" y1="0%" x2="100%" y2="100%">
      <stop offset="0%" stop-color="#e0e7ff" />
      <stop offset="100%" stop-color="#c7d2fe" />
    </linearGradient>
    <!-- 装饰性圆形渐变 -->
    <radialGradient id="circleGradient1" cx="20%" cy="30%" r="30%" fx="20%" fy="30%">
      <stop offset="0%" stop-color="#818cf8" stop-opacity="0.6" />
      <stop offset="100%" stop-color="#818cf8" stop-opacity="0" />
    </radialGradient>
    <radialGradient id="circleGradient2" cx="80%" cy="60%" r="25%" fx="80%" fy="60%">
      <stop offset="0%" stop-color="#a5b4fc" stop-opacity="0.5" />
      <stop offset="100%" stop-color="#a5b4fc" stop-opacity="0" />
    </radialGradient>
    <!-- 装饰性星星 -->
    <path id="star" d="M10,0 L12.5,6.5 L20,7.5 L15,12.5 L16.5,20 L10,17 L3.5,20 L5,12.5 L0,7.5 L7.5,6.5 Z" />
  </defs>

  <!-- 背景 -->
  <rect width="100%" height="100%" fill="url(#bgGradient)" />

  <!-- 装饰圆形 -->
  <circle cx="384" cy="324" r="324" fill="url(#circleGradient1)" />
  <circle cx="1536" cy="648" r="270" fill="url(#circleGradient2)" />

  <!-- 装饰性星星 -->
  <use href="#star" x="150" y="150" width="35" height="35" fill="#ffffff" fill-opacity="0.7" />
  <use href="#star" x="1600" y="150" width="25" height="25" fill="#ffffff" fill-opacity="0.6" />
  <use href="#star" x="400" y="850" width="30" height="30" fill="#ffffff" fill-opacity="0.6" />
  <use href="#star" x="1400" y="800" width="20" height="20" fill="#ffffff" fill-opacity="0.5" />
  <use href="#star" x="800" y="300" width="22" height="22" fill="#ffffff" fill-opacity="0.5" />
  <use href="#star" x="1200" y="500" width="18" height="18" fill="#ffffff" fill-opacity="0.5" />
  <use href="#star" x="600" y="600" width="25" height="25" fill="#ffffff" fill-opacity="0.6" />

  <!-- 装饰性几何图形 -->
  <g transform="translate(1300, 400) rotate(45)">
    <rect width="200" height="200" rx="15" fill="#e0e7ff" fill-opacity="0.7" />
  </g>
  <g transform="translate(400, 600) rotate(-30)">
    <rect width="150" height="150" rx="15" fill="#ddd6fe" fill-opacity="0.7" />
  </g>

  <!-- 装饰性线条 -->
  <path d="M0,350 Q480,250 960,350 T1920,350" stroke="#818cf8" stroke-width="3" fill="none" stroke-opacity="0.5" />
  <path d="M0,650 Q480,750 960,650 T1920,650" stroke="#a5b4fc" stroke-width="2" fill="none" stroke-opacity="0.4" />
  <path d="M0,850 Q640,750 1280,850 T1920,850" stroke="#c7d2fe" stroke-width="2" fill="none" stroke-opacity="0.3" />
</svg>