<svg xmlns="http://www.w3.org/2000/svg" width="1920" height="1080" viewBox="0 0 1920 1080">
  <!-- 背景渐变 -->
  <defs>
    <linearGradient id="bgGradient" x1="0%" y1="0%" x2="100%" y2="100%">
      <stop offset="0%" stop-color="#fef3c7" />
      <stop offset="100%" stop-color="#fde68a" />
    </linearGradient>
    <!-- 装饰性圆形渐变 -->
    <radialGradient id="circleGradient1" cx="30%" cy="20%" r="25%" fx="30%" fy="20%">
      <stop offset="0%" stop-color="#fbbf24" stop-opacity="0.6" />
      <stop offset="100%" stop-color="#fbbf24" stop-opacity="0" />
    </radialGradient>
    <radialGradient id="circleGradient2" cx="70%" cy="70%" r="30%" fx="70%" fy="70%">
      <stop offset="0%" stop-color="#fcd34d" stop-opacity="0.5" />
      <stop offset="100%" stop-color="#fcd34d" stop-opacity="0" />
    </radialGradient>
    <!-- 装饰性星星 -->
    <path id="star" d="M10,0 L12.5,6.5 L20,7.5 L15,12.5 L16.5,20 L10,17 L3.5,20 L5,12.5 L0,7.5 L7.5,6.5 Z" />
  </defs>

  <!-- 背景 -->
  <rect width="100%" height="100%" fill="url(#bgGradient)" />

  <!-- 装饰圆形 -->
  <circle cx="576" cy="216" r="270" fill="url(#circleGradient1)" />
  <circle cx="1344" cy="756" r="324" fill="url(#circleGradient2)" />

  <!-- 装饰性星星 -->
  <use href="#star" x="100" y="100" width="30" height="30" fill="#ffffff" fill-opacity="0.7" />
  <use href="#star" x="1700" y="200" width="20" height="20" fill="#ffffff" fill-opacity="0.6" />
  <use href="#star" x="300" y="800" width="25" height="25" fill="#ffffff" fill-opacity="0.6" />
  <use href="#star" x="1500" y="900" width="15" height="15" fill="#ffffff" fill-opacity="0.5" />
  <use href="#star" x="700" y="400" width="18" height="18" fill="#ffffff" fill-opacity="0.5" />

  <!-- 装饰性几何图形 -->
  <g transform="translate(1200, 300) rotate(30)">
    <rect width="180" height="180" rx="10" fill="#fef9c3" fill-opacity="0.7" />
  </g>
  <g transform="translate(500, 700) rotate(-20)">
    <rect width="120" height="120" rx="10" fill="#fef3c7" fill-opacity="0.7" />
  </g>

  <!-- 装饰性线条 -->
  <path d="M0,400 Q480,300 960,400 T1920,400" stroke="#fcd34d" stroke-width="3" fill="none" stroke-opacity="0.5" />
  <path d="M0,600 Q480,700 960,600 T1920,600" stroke="#fbbf24" stroke-width="2" fill="none" stroke-opacity="0.4" />
</svg>